<svg width="24" height="24" viewBox="0 0 24 24" fill="none" xmlns="http://www.w3.org/2000/svg">
<path d="M14.0732 6.79297V10.2925L15.2975 11.0624C15.3417 11.0722 15.3875 11.0722 15.4317 11.0624L20.6953 7.51371C20.6915 7.34148 20.6285 7.17582 20.5169 7.04457C20.4053 6.91332 20.252 6.82447 20.0826 6.79297H14.0732Z" fill="#7A7E87"/>
<path d="M14.0733 11.5983L15.1896 12.365C15.2418 12.3968 15.3018 12.4137 15.363 12.4137C15.4242 12.4137 15.4842 12.3968 15.5365 12.365C15.3448 12.4806 20.6948 8.92871 20.6948 8.92871V15.3604C20.7087 15.4907 20.694 15.6225 20.6517 15.7466C20.6094 15.8706 20.5405 15.9839 20.4498 16.0786C20.3591 16.1732 20.2489 16.2469 20.1267 16.2945C20.0046 16.342 19.8735 16.3623 19.7427 16.354H14.0727L14.0733 11.5983ZM8.29463 9.9849C8.10916 9.98401 7.9269 10.0333 7.76717 10.1276C7.60744 10.2218 7.47619 10.3575 7.38731 10.5203C7.14459 10.9519 7.02812 11.443 7.05123 11.9375C7.026 12.4311 7.14263 12.9215 7.38731 13.3509C7.47581 13.507 7.60384 13.637 7.75852 13.728C7.9132 13.8189 8.0891 13.8675 8.26852 13.869C8.44795 13.8704 8.6246 13.8246 8.7807 13.7361C8.93681 13.6476 9.06688 13.5196 9.15785 13.365C9.39987 12.9376 9.51408 12.4497 9.48691 11.9593C9.51463 11.4535 9.40419 10.9496 9.16743 10.5018C9.08283 10.3443 8.95681 10.2129 8.80299 10.1218C8.64917 10.0307 8.47339 9.98339 8.29463 9.9849Z" fill="#7A7E87"/>
<path d="M3 5.01589V18.7067L13.4149 20.8906V3L3 5.01589ZM9.96969 14.1759C9.77486 14.4506 9.5158 14.6734 9.2151 14.825C8.9144 14.9765 8.58119 15.0523 8.24452 15.0455C7.91632 15.0513 7.59156 14.9778 7.29788 14.8312C7.00419 14.6846 6.75026 14.4692 6.55768 14.2034C6.10095 13.5657 5.87248 12.7927 5.90915 12.0092C5.87029 11.1873 6.1029 10.3754 6.5711 9.69877C6.76839 9.41886 7.03151 9.19179 7.33727 9.03758C7.64303 8.88336 7.98203 8.80674 8.32439 8.81446C8.65021 8.80792 8.97266 8.88146 9.26342 9.02863C9.55419 9.1758 9.80439 9.39209 9.99205 9.65851C10.4442 10.31 10.6688 11.0925 10.631 11.8846C10.6708 12.7006 10.4382 13.5066 9.96969 14.1759Z" fill="#7A7E87"/>
</svg>
