<svg width="30" height="29" viewBox="0 0 30 29" fill="none" xmlns="http://www.w3.org/2000/svg">
<g clip-path="url(#clip0_698_19802)">
<path d="M8.75 12.75H11.25V15.25H8.75V12.75ZM8.75 17.75H11.25V20.25H8.75V17.75ZM13.75 12.75H16.25V15.25H13.75V12.75ZM13.75 17.75H16.25V20.25H13.75V17.75ZM18.75 12.75H21.25V15.25H18.75V12.75ZM18.75 17.75H21.25V20.25H18.75V17.75Z" fill="white"/>
<path d="M6.25 26.5H23.75C25.1287 26.5 26.25 25.3787 26.25 24V6.5C26.25 5.12125 25.1287 4 23.75 4H21.25V1.5H18.75V4H11.25V1.5H8.75V4H6.25C4.87125 4 3.75 5.12125 3.75 6.5V24C3.75 25.3787 4.87125 26.5 6.25 26.5ZM23.75 9L23.7512 24H6.25V9H23.75Z" fill="white"/>
</g>
<defs>
<clipPath id="clip0_698_19802">
<rect width="30" height="29" fill="white"/>
</clipPath>
</defs>
</svg>
