<svg width="30" height="29" viewBox="0 0 30 29" fill="none" xmlns="http://www.w3.org/2000/svg">
<g clip-path="url(#clip0_698_19808)">
<path d="M13.6072 21.6431H15.3929M19.8572 10.9288V7.35735M11.8215 10.9288V4.67878H6.46436V10.9288M23.4286 5.12521C23.4286 5.41834 23.3709 5.7086 23.2587 5.97941C23.1466 6.25023 22.9821 6.4963 22.7749 6.70357C22.5676 6.91085 22.3215 7.07526 22.0507 7.18744C21.7799 7.29962 21.4896 7.35735 21.1965 7.35735H18.5179C17.9259 7.35735 17.3582 7.12218 16.9396 6.70357C16.521 6.28496 16.2858 5.71721 16.2858 5.12521C16.2858 4.53321 16.521 3.96545 16.9396 3.54685C17.3582 3.12824 17.9259 2.89307 18.5179 2.89307H21.1965C21.4896 2.89307 21.7799 2.9508 22.0507 3.06298C22.3215 3.17515 22.5676 3.33957 22.7749 3.54685C22.9821 3.75412 23.1466 4.00019 23.2587 4.27101C23.3709 4.54182 23.4286 4.83208 23.4286 5.12521Z" stroke="white" stroke-width="2" stroke-linecap="round" stroke-linejoin="round"/>
<path d="M24.3216 17.1787H4.67878C3.69256 17.1787 2.89307 17.9782 2.89307 18.9644V24.3216C2.89307 25.3078 3.69256 26.1073 4.67878 26.1073H24.3216C25.3079 26.1073 26.1074 25.3078 26.1074 24.3216V18.9644C26.1074 17.9782 25.3079 17.1787 24.3216 17.1787Z" stroke="white" stroke-width="2" stroke-linecap="round" stroke-linejoin="round"/>
<path d="M24.3216 17.1787V12.7144C24.3216 12.2408 24.1334 11.7866 23.7985 11.4517C23.4637 11.1168 23.0095 10.9287 22.5359 10.9287H6.46443C5.99082 10.9287 5.53662 11.1168 5.20173 11.4517C4.86685 11.7866 4.67871 12.2408 4.67871 12.7144V17.1787" stroke="white" stroke-width="2" stroke-linecap="round" stroke-linejoin="round"/>
</g>
<defs>
<clipPath id="clip0_698_19808">
<rect width="25" height="25" fill="white" transform="translate(2 2)"/>
</clipPath>
</defs>
</svg>
