<svg width="30" height="29" viewBox="0 0 30 29" fill="none" xmlns="http://www.w3.org/2000/svg">
<g clip-path="url(#clip0_698_19805)">
<path d="M15 3.5C13.7639 3.5 12.5555 3.86656 11.5277 4.55331C10.4999 5.24007 9.6988 6.21619 9.22575 7.35823C8.75271 8.50027 8.62893 9.75693 8.87009 10.9693C9.11125 12.1817 9.7065 13.2953 10.5806 14.1694C11.4547 15.0435 12.5683 15.6388 13.7807 15.8799C14.9931 16.1211 16.2497 15.9973 17.3918 15.5242C18.5338 15.0512 19.5099 14.2501 20.1967 13.2223C20.8834 12.1945 21.25 10.9861 21.25 9.75C21.25 8.0924 20.5915 6.50269 19.4194 5.33058C18.2473 4.15848 16.6576 3.5 15 3.5ZM15 13.5C14.2583 13.5 13.5333 13.2801 12.9166 12.868C12.2999 12.456 11.8193 11.8703 11.5355 11.1851C11.2516 10.4998 11.1774 9.74584 11.3221 9.01841C11.4667 8.29098 11.8239 7.6228 12.3483 7.09835C12.8728 6.5739 13.541 6.21675 14.2684 6.07206C14.9958 5.92736 15.7498 6.00162 16.4351 6.28545C17.1203 6.56928 17.706 7.04993 18.118 7.66661C18.5301 8.2833 18.75 9.00832 18.75 9.75C18.75 10.7446 18.3549 11.6984 17.6517 12.4017C16.9484 13.1049 15.9946 13.5 15 13.5ZM26.25 27.25V26C26.25 23.6794 25.3281 21.4538 23.6872 19.8128C22.0462 18.1719 19.8206 17.25 17.5 17.25H12.5C10.1794 17.25 7.95376 18.1719 6.31282 19.8128C4.67187 21.4538 3.75 23.6794 3.75 26V27.25H6.25V26C6.25 24.3424 6.90848 22.7527 8.08058 21.5806C9.25269 20.4085 10.8424 19.75 12.5 19.75H17.5C19.1576 19.75 20.7473 20.4085 21.9194 21.5806C23.0915 22.7527 23.75 24.3424 23.75 26V27.25H26.25Z" fill="white"/>
</g>
<defs>
<clipPath id="clip0_698_19805">
<rect width="30" height="29" fill="white"/>
</clipPath>
</defs>
</svg>
