<svg width="30" height="29" viewBox="0 0 30 29" fill="none" xmlns="http://www.w3.org/2000/svg">
<path d="M27.7901 11.2541C27.0174 8.92397 24.4979 7.65901 22.18 8.42464C19.3581 9.32343 18.2496 13.5178 15.6629 14.4498C15.73 11.7202 19.4253 9.35671 19.4253 6.42734C19.4253 3.96401 17.4433 2 14.991 2C12.5387 2 10.5567 3.96401 10.5567 6.39406C10.5567 9.35671 14.2855 11.6869 14.3191 14.4165C11.7324 13.5178 10.6239 9.32343 7.80201 8.42464C5.48406 7.65901 2.96456 8.92397 2.22551 11.2541C1.45286 13.551 2.72941 16.0477 5.08094 16.8133C7.86919 17.7121 11.2285 15.0157 13.8824 15.7148C12.1692 17.8452 7.86919 17.6122 6.15593 20.009C4.71142 21.973 5.18172 24.7359 7.16373 26.1673C9.14574 27.5987 11.934 27.1327 13.3785 25.1687C15.1254 22.7719 13.4793 18.744 15.0246 16.4804C16.5699 18.744 14.9574 22.7719 16.6707 25.1687C18.1152 27.1327 20.8698 27.5987 22.8854 26.1673C24.8675 24.7359 25.3378 22.0063 23.8932 20.009C22.18 17.6455 17.8464 17.8452 16.1668 15.7148C18.8206 15.0157 22.1464 17.7121 24.9682 16.8133C27.2526 16.0477 28.5291 13.551 27.7901 11.2541Z" fill="white"/>
</svg>
