<svg width="30" height="29" viewBox="0 0 30 29" fill="none" xmlns="http://www.w3.org/2000/svg">
<path d="M15.0001 18.7915C13.9945 18.7915 13.03 18.392 12.319 17.681C11.6079 16.9699 11.2084 16.0055 11.2084 14.9998C11.2084 13.9942 11.6079 13.0298 12.319 12.3187C13.03 11.6077 13.9945 11.2082 15.0001 11.2082C16.0057 11.2082 16.9701 11.6077 17.6812 12.3187C18.3923 13.0298 18.7917 13.9942 18.7917 14.9998C18.7917 16.0055 18.3923 16.9699 17.6812 17.681C16.9701 18.392 16.0057 18.7915 15.0001 18.7915ZM23.0492 16.0507C23.0926 15.704 23.1251 15.3573 23.1251 14.9998C23.1251 14.6423 23.0926 14.2848 23.0492 13.9165L25.3351 12.1507C25.5409 11.9882 25.5951 11.6957 25.4651 11.4573L23.2984 7.70901C23.1684 7.47067 22.8759 7.37317 22.6376 7.47067L19.9401 8.55401C19.3767 8.13151 18.7917 7.76317 18.1092 7.49234L17.7084 4.62151C17.6864 4.49391 17.6199 4.37822 17.5208 4.29494C17.4216 4.21165 17.2962 4.16616 17.1667 4.16651H12.8334C12.5626 4.16651 12.3351 4.36151 12.2917 4.62151L11.8909 7.49234C11.2084 7.76317 10.6234 8.13151 10.0601 8.55401L7.36257 7.47067C7.12424 7.37317 6.83174 7.47067 6.70174 7.70901L4.53507 11.4573C4.39424 11.6957 4.45924 11.9882 4.66507 12.1507L6.9509 13.9165C6.90757 14.2848 6.87507 14.6423 6.87507 14.9998C6.87507 15.3573 6.90757 15.704 6.9509 16.0507L4.66507 17.849C4.45924 18.0115 4.39424 18.304 4.53507 18.5423L6.70174 22.2907C6.83174 22.529 7.12424 22.6157 7.36257 22.529L10.0601 21.4348C10.6234 21.8682 11.2084 22.2365 11.8909 22.5073L12.2917 25.3782C12.3351 25.6382 12.5626 25.8332 12.8334 25.8332H17.1667C17.4376 25.8332 17.6651 25.6382 17.7084 25.3782L18.1092 22.5073C18.7917 22.2257 19.3767 21.8682 19.9401 21.4348L22.6376 22.529C22.8759 22.6157 23.1684 22.529 23.2984 22.2907L25.4651 18.5423C25.5951 18.304 25.5409 18.0115 25.3351 17.849L23.0492 16.0507Z" fill="white"/>
</svg>
