<svg width="24" height="24" viewBox="0 0 24 24" fill="none" xmlns="http://www.w3.org/2000/svg">
<path d="M12.5 4C11.6759 4 10.8703 4.24694 10.1851 4.7096C9.49992 5.17226 8.96587 5.82985 8.6505 6.59923C8.33514 7.3686 8.25262 8.2152 8.41339 9.03196C8.57417 9.84872 8.971 10.599 9.55372 11.1878C10.1364 11.7767 10.8789 12.1777 11.6871 12.3401C12.4954 12.5026 13.3332 12.4192 14.0945 12.1005C14.8559 11.7819 15.5066 11.2422 15.9645 10.5498C16.4223 9.85735 16.6667 9.04329 16.6667 8.21053C16.6667 7.09383 16.2277 6.02286 15.4463 5.23323C14.6649 4.44361 13.6051 4 12.5 4ZM12.5 10.7368C12.0055 10.7368 11.5222 10.5887 11.1111 10.3111C10.7 10.0335 10.3795 9.63893 10.1903 9.17731C10.0011 8.71568 9.95157 8.20772 10.048 7.71767C10.1445 7.22761 10.3826 6.77746 10.7322 6.42415C11.0819 6.07084 11.5273 5.83023 12.0123 5.73275C12.4972 5.63527 12.9999 5.6853 13.4567 5.87652C13.9135 6.06773 14.304 6.39153 14.5787 6.80698C14.8534 7.22243 15 7.71087 15 8.21053C15 8.88055 14.7366 9.52313 14.2678 9.9969C13.7989 10.4707 13.163 10.7368 12.5 10.7368ZM20 20V19.1579C20 17.5945 19.3854 16.0952 18.2915 14.9897C17.1975 13.8842 15.7138 13.2632 14.1667 13.2632H10.8333C9.28624 13.2632 7.80251 13.8842 6.70854 14.9897C5.61458 16.0952 5 17.5945 5 19.1579V20H6.66667V19.1579C6.66667 18.0412 7.10565 16.9702 7.88705 16.1806C8.66846 15.391 9.72826 14.9474 10.8333 14.9474H14.1667C15.2717 14.9474 16.3315 15.391 17.1129 16.1806C17.8943 16.9702 18.3333 18.0412 18.3333 19.1579V20H20Z" fill="#7A7E87"/>
</svg>
