<svg width="32" height="32" viewBox="0 0 32 32" fill="none" xmlns="http://www.w3.org/2000/svg">
<path d="M16.0018 18.9165C15.2283 18.9165 14.4864 18.6092 13.9394 18.0622C13.3924 17.5153 13.0852 16.7734 13.0852 15.9998C13.0852 15.2263 13.3924 14.4844 13.9394 13.9374C14.4864 13.3905 15.2283 13.0832 16.0018 13.0832C16.7754 13.0832 17.5172 13.3905 18.0642 13.9374C18.6112 14.4844 18.9185 15.2263 18.9185 15.9998C18.9185 16.7734 18.6112 17.5153 18.0642 18.0622C17.5172 18.6092 16.7754 18.9165 16.0018 18.9165ZM22.1935 16.8082C22.2268 16.5415 22.2518 16.2748 22.2518 15.9998C22.2518 15.7248 22.2268 15.4498 22.1935 15.1665L23.9518 13.8082C24.1102 13.6832 24.1518 13.4582 24.0518 13.2748L22.3852 10.3915C22.2852 10.2082 22.0602 10.1332 21.8768 10.2082L19.8018 11.0415C19.3685 10.7165 18.9185 10.4332 18.3935 10.2248L18.0852 8.01651C18.0682 7.91835 18.0171 7.82936 17.9408 7.7653C17.8646 7.70124 17.7681 7.66624 17.6685 7.66651H14.3352C14.1268 7.66651 13.9518 7.81651 13.9185 8.01651L13.6102 10.2248C13.0852 10.4332 12.6352 10.7165 12.2018 11.0415L10.1268 10.2082C9.94349 10.1332 9.71849 10.2082 9.61849 10.3915L7.95182 13.2748C7.84349 13.4582 7.89349 13.6832 8.05182 13.8082L9.81015 15.1665C9.77682 15.4498 9.75182 15.7248 9.75182 15.9998C9.75182 16.2748 9.77682 16.5415 9.81015 16.8082L8.05182 18.1915C7.89349 18.3165 7.84349 18.5415 7.95182 18.7248L9.61849 21.6082C9.71849 21.7915 9.94349 21.8582 10.1268 21.7915L12.2018 20.9498C12.6352 21.2832 13.0852 21.5665 13.6102 21.7748L13.9185 23.9832C13.9518 24.1832 14.1268 24.3332 14.3352 24.3332H17.6685C17.8768 24.3332 18.0518 24.1832 18.0852 23.9832L18.3935 21.7748C18.9185 21.5582 19.3685 21.2832 19.8018 20.9498L21.8768 21.7915C22.0602 21.8582 22.2852 21.7915 22.3852 21.6082L24.0518 18.7248C24.1518 18.5415 24.1102 18.3165 23.9518 18.1915L22.1935 16.8082Z" fill="#7A7E87"/>
</svg>
