<svg width="24" height="24" viewBox="0 0 24 24" fill="none" xmlns="http://www.w3.org/2000/svg">
<path d="M17.75 4.75L13.25 9.25L14.75 10.75L20 5.5V4.75M12.5 11.875C12.4005 11.875 12.3052 11.8355 12.2348 11.7652C12.1645 11.6948 12.125 11.5995 12.125 11.5C12.125 11.4005 12.1645 11.3052 12.2348 11.2348C12.3052 11.1645 12.4005 11.125 12.5 11.125C12.5995 11.125 12.6948 11.1645 12.7652 11.2348C12.8355 11.3052 12.875 11.4005 12.875 11.5C12.875 11.5995 12.8355 11.6948 12.7652 11.7652C12.6948 11.8355 12.5995 11.875 12.5 11.875ZM8 17.5C7.60218 17.5 7.22064 17.342 6.93934 17.0607C6.65804 16.7794 6.5 16.3978 6.5 16C6.5 15.6022 6.65804 15.2206 6.93934 14.9393C7.22064 14.658 7.60218 14.5 8 14.5C8.39782 14.5 8.77936 14.658 9.06066 14.9393C9.34196 15.2206 9.5 15.6022 9.5 16C9.5 16.3978 9.34196 16.7794 9.06066 17.0607C8.77936 17.342 8.39782 17.5 8 17.5ZM8 8.5C7.60218 8.5 7.22064 8.34196 6.93934 8.06066C6.65804 7.77936 6.5 7.39782 6.5 7C6.5 6.60218 6.65804 6.22064 6.93934 5.93934C7.22064 5.65804 7.60218 5.5 8 5.5C8.39782 5.5 8.77936 5.65804 9.06066 5.93934C9.34196 6.22064 9.5 6.60218 9.5 7C9.5 7.39782 9.34196 7.77936 9.06066 8.06066C8.77936 8.34196 8.39782 8.5 8 8.5ZM10.73 8.23C10.9025 7.855 11 7.4425 11 7C11 6.20435 10.6839 5.44129 10.1213 4.87868C9.55871 4.31607 8.79565 4 8 4C7.20435 4 6.44129 4.31607 5.87868 4.87868C5.31607 5.44129 5 6.20435 5 7C5 7.79565 5.31607 8.55871 5.87868 9.12132C6.44129 9.68393 7.20435 10 8 10C8.4425 10 8.855 9.9025 9.23 9.73L11 11.5L9.23 13.27C8.855 13.0975 8.4425 13 8 13C7.20435 13 6.44129 13.3161 5.87868 13.8787C5.31607 14.4413 5 15.2044 5 16C5 16.7956 5.31607 17.5587 5.87868 18.1213C6.44129 18.6839 7.20435 19 8 19C8.79565 19 9.55871 18.6839 10.1213 18.1213C10.6839 17.5587 11 16.7956 11 16C11 15.5575 10.9025 15.145 10.73 14.77L12.5 13L17.75 18.25H20V17.5L10.73 8.23Z" fill="#7A7E87"/>
</svg>
