<svg width="24" height="24" viewBox="0 0 24 24" fill="none" xmlns="http://www.w3.org/2000/svg">
<g clip-path="url(#clip0_1088_25655)">
<path d="M21.1847 9.66252C21.1108 9.06216 20.599 8.59727 19.9787 8.59727H18.4977C18.8593 8.14607 19.0821 7.58701 19.0821 6.92517C19.0821 6.43729 18.9422 5.91785 18.5943 5.51808C18.2431 5.11446 17.6947 4.85 16.9145 4.85C15.8824 4.85 14.9498 5.39848 14.1885 6.07607C13.5027 6.68639 12.9414 7.41434 12.5534 7.98326C12.1625 7.41364 11.5896 6.68568 10.8925 6.07548C10.1188 5.3983 9.17394 4.85027 8.14248 4.85027C7.36227 4.85027 6.8139 5.11472 6.46268 5.51834C6.1148 5.91811 5.9749 6.43755 5.9749 6.92543C5.9749 7.58755 6.20376 8.1467 6.57252 8.59754H5.06525C4.39412 8.59754 3.85 9.14166 3.85 9.81278V13.0013V13.1513H4H4.92457V19.9348C4.92457 20.6059 5.46867 21.15 6.13981 21.15H18.9174C19.5885 21.15 20.1327 20.6059 20.1327 19.9348V13.1511H21.0439H21.1939V13.0011V9.81252V9.66252H21.1847ZM16.9145 6.21551C17.2268 6.21551 17.4205 6.28174 17.5366 6.38759C17.6496 6.49071 17.7168 6.65731 17.7168 6.92545C17.7168 7.45246 17.4255 7.86534 16.971 8.15322C16.5139 8.44276 15.9023 8.597 15.3041 8.597H13.7869C14.1421 8.09647 14.5937 7.54409 15.0947 7.09659C15.6793 6.57442 16.3083 6.21551 16.9145 6.21551ZM8.14246 6.21553C8.74954 6.21553 9.3914 6.57514 9.98881 7.09761C10.5005 7.5451 10.9626 8.09723 11.3199 8.59675H9.8029C9.20526 8.59675 8.58065 8.43862 8.1103 8.14427C7.64174 7.85104 7.34011 7.43359 7.34011 6.90867C7.34011 6.6407 7.40728 6.47949 7.51875 6.3808C7.63434 6.27845 7.82817 6.21553 8.14246 6.21553ZM19.8287 11.7858H13.2046V9.96252H19.8287V11.7858ZM5.21523 9.96252H11.8393V11.7858H5.21523V9.96252ZM6.2898 13.1511H11.8393V19.7845H6.2898V13.1511ZM18.7677 19.7845H13.2046V13.1511H18.7677V19.7845Z" fill="#7A7E87" stroke="#7A7E87" stroke-width="0.3"/>
</g>
<defs>
<clipPath id="clip0_1088_25655">
<rect width="24" height="24" fill="white"/>
</clipPath>
</defs>
</svg>
