<svg width="24" height="24" viewBox="0 0 24 24" fill="none" xmlns="http://www.w3.org/2000/svg">
<g clip-path="url(#clip0_1088_25649)">
<path d="M12 16.5L13.404 13.422L16.5 12L13.404 10.596L12 7.5L10.587 10.596L7.5 12L10.587 13.422L12 16.5ZM8.553 3.684C9.64657 3.23395 10.8174 3.00161 12 3C13.179 3 14.349 3.234 15.447 3.684C16.536 4.134 17.526 4.8 18.363 5.637C19.2 6.474 19.866 7.464 20.316 8.553C20.766 9.651 21 10.821 21 12C21 14.385 20.055 16.68 18.363 18.363C17.5282 19.1998 16.5364 19.8635 15.4445 20.3161C14.3526 20.7686 13.182 21.001 12 21C10.8174 20.9984 9.64657 20.766 8.553 20.316C7.46198 19.8632 6.47105 19.1995 5.637 18.363C4.80018 17.5282 4.13646 16.5364 3.68393 15.4445C3.2314 14.3525 2.99898 13.182 3 12C3 9.615 3.945 7.32 5.637 5.637C6.474 4.8 7.464 4.134 8.553 3.684ZM6.906 17.094C8.256 18.444 10.092 19.2 12 19.2C13.908 19.2 15.744 18.444 17.094 17.094C18.444 15.744 19.2 13.908 19.2 12C19.2 10.092 18.444 8.256 17.094 6.906C15.7421 5.55675 13.91 4.79929 12 4.8C10.092 4.8 8.256 5.556 6.906 6.906C5.55676 8.25787 4.79929 10.09 4.8 12C4.8 13.908 5.556 15.744 6.906 17.094Z" fill="#7A7E87"/>
</g>
<defs>
<clipPath id="clip0_1088_25649">
<rect width="24" height="24" fill="white"/>
</clipPath>
</defs>
</svg>
