<svg width="24" height="24" viewBox="0 0 24 24" fill="none" xmlns="http://www.w3.org/2000/svg">
<g clip-path="url(#clip0_1088_25646)">
<path fill-rule="evenodd" clip-rule="evenodd" d="M11.9996 5.9999C10.4084 5.9999 8.88234 6.63201 7.75718 7.75718C6.63201 8.88234 5.9999 10.4084 5.9999 11.9996C5.9999 13.5908 6.63201 15.1169 7.75718 16.242C8.88234 17.3672 10.4084 17.9993 11.9996 17.9993C13.5908 17.9993 15.1169 17.3672 16.242 16.242C17.3672 15.1169 17.9993 13.5908 17.9993 11.9996C17.9993 10.4084 17.3672 8.88234 16.242 7.75718C15.1169 6.63201 13.5908 5.9999 11.9996 5.9999ZM4 11.9996C4 9.87798 4.84281 7.84325 6.34303 6.34303C7.84325 4.84281 9.87798 4 11.9996 4C14.1212 4 16.156 4.84281 17.6562 6.34303C19.1564 7.84325 19.9992 9.87798 19.9992 11.9996C19.9992 14.1212 19.1564 16.156 17.6562 17.6562C16.156 19.1564 14.1212 19.9992 11.9996 19.9992C9.87798 19.9992 7.84325 19.1564 6.34303 17.6562C4.84281 16.156 4 14.1212 4 11.9996Z" fill="#7A7E87"/>
<path fill-rule="evenodd" clip-rule="evenodd" d="M17.6562 6.34258C17.8436 6.5301 17.9489 6.78439 17.9489 7.04954C17.9489 7.31469 17.8436 7.56899 17.6562 7.75651L7.75664 17.656C7.56805 17.8382 7.31546 17.939 7.05327 17.9367C6.79109 17.9344 6.54029 17.8292 6.35489 17.6438C6.16949 17.4584 6.06433 17.2076 6.06205 16.9455C6.05977 16.6833 6.16056 16.4307 6.34271 16.2421L16.2422 6.34258C16.4297 6.15512 16.684 6.0498 16.9492 6.0498C17.2143 6.0498 17.4686 6.15512 17.6562 6.34258Z" fill="#7A7E87"/>
</g>
<defs>
<clipPath id="clip0_1088_25646">
<rect width="24" height="24" fill="white"/>
</clipPath>
</defs>
</svg>
