<svg width="24" height="24" viewBox="0 0 24 24" fill="none" xmlns="http://www.w3.org/2000/svg">
<path d="M11.9998 4.99797C10.1638 4.99797 8.6438 5.38697 7.3828 5.96897L3.7068 2.29297L2.2928 3.70697L5.6078 7.02297C2.9948 8.97497 2.0648 11.641 2.0508 11.683L1.9458 11.999L2.0508 12.315C2.0728 12.382 4.3668 19 11.9998 19C13.8348 19 15.3538 18.611 16.6148 18.029L20.2928 21.707L21.7068 20.293L18.3898 16.976C21.0038 15.024 21.9348 12.358 21.9488 12.316L22.0538 12L21.9488 11.684C21.9268 11.616 19.6328 4.99797 11.9998 4.99797ZM4.0738 12C4.1768 11.764 4.3478 11.414 4.5948 11.011L10.4618 16.878C6.2488 16.23 4.5228 13.035 4.0738 12ZM13.3208 16.907L5.8408 9.42597C6.20484 9.06179 6.60262 8.73298 7.0288 8.44397L15.0838 16.498C14.5117 16.6943 13.9209 16.8313 13.3208 16.907ZM16.9688 15.555L15.4278 14.014C15.7818 13.418 15.9998 12.734 15.9998 11.999C15.9998 11.525 15.9008 11.075 15.7448 10.65C15.6533 10.7587 15.5393 10.8463 15.4107 10.9067C15.2821 10.9671 15.1419 10.9989 14.9998 11C14.7346 11 14.4802 10.8946 14.2927 10.7071C14.1052 10.5195 13.9998 10.2652 13.9998 9.99997C13.9998 9.56097 14.2878 9.19797 14.6818 9.06397C13.953 8.38512 12.9957 8.00498 11.9998 7.99897C11.2648 7.99897 10.5808 8.21697 9.9848 8.57097L8.9148 7.50097C9.90735 7.1603 10.9504 6.99023 11.9998 6.99797C17.3508 6.99797 19.4248 10.845 19.9258 11.998C19.2847 13.4322 18.2618 14.6626 16.9688 15.555Z" fill="#7A7E87"/>
</svg>
