<svg width="24" height="24" viewBox="0 0 24 24" fill="none" xmlns="http://www.w3.org/2000/svg">
<path fill-rule="evenodd" clip-rule="evenodd" d="M12 6C10.4087 6 8.88258 6.63214 7.75736 7.75736C6.63214 8.88258 6 10.4087 6 12C6 13.5913 6.63214 15.1174 7.75736 16.2426C8.88258 17.3679 10.4087 18 12 18C13.5913 18 15.1174 17.3679 16.2426 16.2426C17.3679 15.1174 18 13.5913 18 12C18 10.4087 17.3679 8.88258 16.2426 7.75736C15.1174 6.63214 13.5913 6 12 6ZM4 12C4 9.87827 4.84285 7.84344 6.34315 6.34315C7.84344 4.84285 9.87827 4 12 4C14.1217 4 16.1566 4.84285 17.6569 6.34315C19.1571 7.84344 20 9.87827 20 12C20 14.1217 19.1571 16.1566 17.6569 17.6569C16.1566 19.1571 14.1217 20 12 20C9.87827 20 7.84344 19.1571 6.34315 17.6569C4.84285 16.1566 4 14.1217 4 12Z" fill="#7A7E87"/>
<path fill-rule="evenodd" clip-rule="evenodd" d="M17.6572 6.34308C17.8447 6.53061 17.95 6.78492 17.95 7.05008C17.95 7.31524 17.8447 7.56955 17.6572 7.75708L7.75721 17.6571C7.56861 17.8392 7.31601 17.94 7.05381 17.9378C6.79161 17.9355 6.5408 17.8303 6.35539 17.6449C6.16998 17.4595 6.06482 17.2087 6.06254 16.9465C6.06026 16.6843 6.16105 16.4317 6.34321 16.2431L16.2432 6.34308C16.4307 6.15561 16.685 6.05029 16.9502 6.05029C17.2154 6.05029 17.4697 6.15561 17.6572 6.34308Z" fill="#7A7E87"/>
</svg>
