<svg width="24" height="24" viewBox="0 0 24 24" fill="none" xmlns="http://www.w3.org/2000/svg">
<path d="M12.002 21C13.965 20.9996 15.8739 20.3574 17.438 19.1713C19.0021 17.9853 20.1356 16.3204 20.6656 14.4304C21.1957 12.5404 21.0934 10.5289 20.3742 8.70249C19.655 6.87606 18.3584 5.33484 16.6819 4.31369C15.0055 3.29254 13.0412 2.84747 11.0884 3.0463C9.13556 3.24513 7.30127 4.07695 5.86505 5.41501C4.42884 6.75306 3.46946 8.52398 3.13312 10.4579C2.79677 12.3918 3.10191 14.3826 4.00202 16.127L3.00202 21L7.87502 20C9.11102 20.639 10.515 21 12.002 21Z" stroke="#7A7E87" stroke-width="2" stroke-linecap="round" stroke-linejoin="round"/>
</svg>
