<svg width="24" height="24" viewBox="0 0 24 24" fill="none" xmlns="http://www.w3.org/2000/svg">
<path fill-rule="evenodd" clip-rule="evenodd" d="M6.46582 10.9467C6.46582 8.472 8.472 6.46582 10.9467 6.46582C13.4215 6.46582 15.4277 8.472 15.4277 10.9467C15.4277 13.4215 13.4215 15.4277 10.9467 15.4277C8.472 15.4277 6.46582 13.4215 6.46582 10.9467ZM10.9467 4.46582C7.36743 4.46582 4.46582 7.36743 4.46582 10.9467C4.46582 14.5261 7.36743 17.4277 10.9467 17.4277C12.3756 17.4277 13.6964 16.9653 14.7678 16.182L18.7102 20.1244L20.1244 18.7102L16.182 14.7678C16.9653 13.6964 17.4277 12.3756 17.4277 10.9467C17.4277 7.36743 14.5261 4.46582 10.9467 4.46582Z" fill="#7A7E87"/>
</svg>
