<svg width="24" height="24" viewBox="0 0 24 24" fill="none" xmlns="http://www.w3.org/2000/svg">
<path d="M12 2C6.48583 2 2 6.48583 2 12C2 17.5142 6.48583 22 12 22C17.5142 22 22 17.5142 22 12C22 6.48583 17.5142 2 12 2ZM12 3.66667C16.6125 3.66667 20.3333 7.3875 20.3333 12C20.3333 16.6125 16.6125 20.3333 12 20.3333C7.3875 20.3333 3.66667 16.6125 3.66667 12C3.66667 7.3875 7.3875 3.66667 12 3.66667ZM8.25 8.66667C7.91848 8.66667 7.60054 8.79836 7.36612 9.03278C7.1317 9.2672 7 9.58515 7 9.91667C7 10.2482 7.1317 10.5661 7.36612 10.8006C7.60054 11.035 7.91848 11.1667 8.25 11.1667C8.58152 11.1667 8.89946 11.035 9.13388 10.8006C9.3683 10.5661 9.5 10.2482 9.5 9.91667C9.5 9.58515 9.3683 9.2672 9.13388 9.03278C8.89946 8.79836 8.58152 8.66667 8.25 8.66667ZM15.75 8.66667C15.4185 8.66667 15.1005 8.79836 14.8661 9.03278C14.6317 9.2672 14.5 9.58515 14.5 9.91667C14.5 10.2482 14.6317 10.5661 14.8661 10.8006C15.1005 11.035 15.4185 11.1667 15.75 11.1667C16.0815 11.1667 16.3995 11.035 16.6339 10.8006C16.8683 10.5661 17 10.2482 17 9.91667C17 9.58515 16.8683 9.2672 16.6339 9.03278C16.3995 8.79836 16.0815 8.66667 15.75 8.66667ZM7.67667 14.5L6.245 15.3333C7.3975 17.3225 9.53917 18.6667 12 18.6667C14.4608 18.6667 16.6025 17.3225 17.755 15.3333L16.3233 14.5C15.8866 15.2604 15.2568 15.892 14.4976 16.331C13.7385 16.77 12.8769 17.0008 12 17C11.1231 17.0008 10.2615 16.77 9.50236 16.331C8.74323 15.892 8.11344 15.2604 7.67667 14.5Z" fill="#7A7E87"/>
</svg>
