<svg width="24" height="24" viewBox="0 0 24 24" fill="none" xmlns="http://www.w3.org/2000/svg">
<path d="M19.5125 5.57629C18.8245 4.82629 17.5835 4.78029 16.7565 5.60729L8.6565 13.7073C8.4465 13.9173 8.4465 14.1833 8.6565 14.3933C8.8665 14.6033 9.1325 14.6033 9.3425 14.3933L16.0425 7.69329C16.2311 7.51113 16.4837 7.41034 16.7459 7.41261C17.0081 7.41489 17.2589 7.52006 17.4443 7.70547C17.6297 7.89088 17.7349 8.14169 17.7372 8.40389C17.7395 8.66608 17.6387 8.91869 17.4565 9.10729L10.7565 15.8073C10.5282 16.0422 10.255 16.229 9.95323 16.3566C9.65144 16.4841 9.32713 16.5498 8.9995 16.5498C8.67187 16.5498 8.34756 16.4841 8.04577 16.3566C7.74398 16.229 7.47084 16.0422 7.2425 15.8073C7.00754 15.579 6.82076 15.3058 6.69322 15.004C6.56568 14.7022 6.49997 14.3779 6.49997 14.0503C6.49997 13.7227 6.56568 13.3983 6.69322 13.0966C6.82076 12.7948 7.00754 12.5216 7.2425 12.2933L15.3425 4.19329C16.9095 2.62529 19.4575 2.57429 20.9725 4.20829C22.5245 5.77729 22.5695 8.31229 20.9425 9.82129L11.4565 19.3073C9.2665 21.4973 5.8325 21.4973 3.6425 19.3073C1.4525 17.1173 1.4525 13.6833 3.6425 11.4933L11.7425 3.39329C11.9311 3.21113 12.1837 3.11034 12.4459 3.11261C12.7081 3.11489 12.9589 3.22006 13.1443 3.40547C13.3297 3.59088 13.4349 3.84169 13.4372 4.10389C13.4395 4.36608 13.3387 4.61869 13.1565 4.80729L5.0565 12.9073C3.6465 14.3173 3.6465 16.4833 5.0565 17.8933C6.4665 19.3033 8.6325 19.3033 10.0425 17.8933L19.5425 8.39329L19.5735 8.36329C20.3235 7.67629 20.3695 6.43429 19.5425 5.60729C19.5323 5.59716 19.5223 5.58682 19.5125 5.57629Z" fill="#7A7E87"/>
</svg>
