<svg width="24" height="24" viewBox="0 0 24 24" fill="none" xmlns="http://www.w3.org/2000/svg">
<path d="M3.24838 2.24994C2.42295 1.85566 1.51609 2.60994 1.75181 3.49366L3.47981 9.95051C3.52311 10.1128 3.61314 10.2588 3.73871 10.3703C3.86427 10.4819 4.01984 10.5541 4.18609 10.5779L12.6581 11.7882C12.9032 11.8225 12.9032 12.1774 12.6581 12.2125L4.18695 13.4219C4.0207 13.4458 3.86513 13.518 3.73956 13.6296C3.614 13.7411 3.52397 13.8871 3.48066 14.0494L1.75181 20.5097C1.51609 21.3925 2.42295 22.1468 3.24838 21.7534L21.6752 12.9685C22.4887 12.5811 22.4887 11.4222 21.6752 11.0339L3.24838 2.24994Z" fill="#7A7E87"/>
</svg>
